# xmcd CD database file
# Copyright (C) 1997 Ti Kan
# 
# Track frame offsets:
#     150
#     20237
#     42557
#     61815
#     113342
#     137345
#     149290
#     176540
#     209292
#     225365
#     237835
#     249217
#     261175
#     274537
#     300027
#     314692
# 
# Disc length: 4505 seconds
# 
# Revision: 1
# Processed by: cddbd v1.5.2PL0 Copyright (c) Steve Scherf et al.
# Submitted via: DiscPlay 4.0.4
# 
DISCID=ce119710
DTITLE=Blues Project - The Blues Project Anthology - Disc 2
DYEAR=1900
DGENRE=
TTITLE0=I Can't Keep From Cryin' Sometimes
TTITLE1=Steve's Song
TTITLE2=You Can't Catch Me
TTITLE3=Two Trains Running
TTITLE4=Wake Me, Shake Me
TTITLE5=Cheryl's Goin' Home
TTITLE6=Flute Thing
TTITLE7=Carress Me Baby
TTITLE8=Fly Away
TTITLE9=No Time Like the Right Time
TTITLE10=Mean Old Southern
TTITLE11=Gentle Dreams
TTITLE12=Lost in the Shuffle
TTITLE13=Black Night
TTITLE14=Visions of Flowers
TTITLE15=Little Rain
EXTD=
EXTT0=
EXTT1=
EXTT2=
EXTT3=
EXTT4=
EXTT5=
EXTT6=
EXTT7=
EXTT8=
EXTT9=
EXTT10=
EXTT11=
EXTT12=
EXTT13=
EXTT14=
EXTT15=
PLAYORDER=
